HIERARCHY
ROOT Hips
{
 OFFSET 0.000000 0.000000 0.000000
 CHANNELS 6 Xposition Yposition Zposition Yrotation Xrotation Zrotation
 JOINT Chest
 {
  OFFSET 0.000000 9.585900 0.002600
  CHANNELS 3 Yrotation Xrotation Zrotation
  JOINT Chest2
  {
   OFFSET 0.000000 9.601200 -0.005300
   CHANNELS 3 Yrotation Xrotation Zrotation
   JOINT Chest3
   {
    OFFSET 0.000000 9.561800 0.000000
    CHANNELS 3 Yrotation Xrotation Zrotation
    JOINT Chest4
    {
     OFFSET 0.000000 9.552100 0.000000
     CHANNELS 3 Yrotation Xrotation Zrotation
     JOINT Neck
     {
      OFFSET 0.000000 14.453000 0.000000
      CHANNELS 3 Yrotation Xrotation Zrotation
      JOINT Head
      {
       OFFSET 0.000000 8.936500 -0.011300
       CHANNELS 3 Yrotation Xrotation Zrotation
       End Site
       {
        OFFSET 0.000000 17.073600 -0.006000
       }
      }
     }
     JOINT RightCollar
     {
      OFFSET -2.921100 9.558500 0.000000
      CHANNELS 3 Yrotation Xrotation Zrotation
      JOINT RightShoulder
      {
       OFFSET -13.519700 0.000000 0.000000
       CHANNELS 3 Yrotation Xrotation Zrotation
       JOINT RightElbow
       {
        OFFSET 0.000000 -29.696600 0.000000
        CHANNELS 3 Yrotation Xrotation Zrotation
        JOINT RightWrist
        {
         OFFSET 0.000000 -24.004700 0.000000
         CHANNELS 3 Yrotation Xrotation Zrotation
         End Site
         {
          OFFSET 0.000000 -17.728500 0.000000
         }
        }
       }
      }
     }
     JOINT LeftCollar
     {
      OFFSET 2.921100 9.558500 0.000000
      CHANNELS 3 Yrotation Xrotation Zrotation
      JOINT LeftShoulder
      {
       OFFSET 13.519700 0.000000 0.000000
       CHANNELS 3 Yrotation Xrotation Zrotation
       JOINT LeftElbow
       {
        OFFSET 0.000000 -29.696600 0.000000
        CHANNELS 3 Yrotation Xrotation Zrotation
        JOINT LeftWrist
        {
         OFFSET 0.000000 -24.004700 0.000000
         CHANNELS 3 Yrotation Xrotation Zrotation
         End Site
         {
          OFFSET 0.000000 -17.728500 0.000000
         }
        }
       }
      }
     }
    }
   }
  }
 }
 JOINT RightHip
 {
  OFFSET -7.771700 -0.012900 -0.001300
  CHANNELS 3 Yrotation Xrotation Zrotation
  JOINT RightKnee
  {
   OFFSET 0.000000 -40.869800 0.001200
   CHANNELS 3 Yrotation Xrotation Zrotation
   JOINT RightAnkle
   {
    OFFSET 0.000000 -39.717900 0.002100
    CHANNELS 3 Yrotation Xrotation Zrotation
    JOINT RightToe
    {
     OFFSET 0.000000 -4.965400 11.033500
     CHANNELS 3 Yrotation Xrotation Zrotation
     End Site
     {
      OFFSET 0.000000 -1.423100 5.872300
     }
    }
   }
  }
 }
 JOINT LeftHip
 {
  OFFSET 7.771700 -0.012900 -0.001300
  CHANNELS 3 Yrotation Xrotation Zrotation
  JOINT LeftKnee
  {
   OFFSET 0.000000 -40.869800 0.001200
   CHANNELS 3 Yrotation Xrotation Zrotation
   JOINT LeftAnkle
   {
    OFFSET 0.000000 -39.717900 0.002100
    CHANNELS 3 Yrotation Xrotation Zrotation
    JOINT LeftToe
    {
     OFFSET 0.000000 -4.965400 11.033500
     CHANNELS 3 Yrotation Xrotation Zrotation
     End Site
     {
      OFFSET 0.000000 -1.423100 5.872300
     }
    }
   }
  }
 }
}
MOTION
Frames: 9
Frame Time: 0.008333
-54.291175 50.118994 35.744561 171.759606 -33.642367 -4.871077 5.245362 18.913343 5.599978 0.571126 2.399625 0.563463 0.935243 3.922996 0.934536 4.457165 16.341361 4.454258 -1.776721 17.099783 0.872947 -3.581587 -3.992158 2.219085 1.019087 -0.961730 -6.506707 7.775253 -3.198222 -6.563499 80.650078 -78.352652 -88.685029 0.941944 4.517073 -3.942920 -9.763003 0.767036 -1.544694 9.908401 -6.408739 3.447657 -146.152610 -76.276495 146.329873 -6.079521 14.957162 -58.403633 6.014328 -48.569221 6.776250 -17.837665 85.541595 -7.510958 -3.838405 -4.982123 -1.363179 0.007025 0.222639 -0.004364 -12.724530 -50.933481 17.925200 -158.395647 88.231005 -164.708123 0.248245 -6.961026 2.149633 -0.019982 -0.244803 0.043233
-54.292425 50.124660 35.746325 171.762018 -33.638118 -4.871999 5.252007 18.915070 5.603470 0.576464 2.402167 0.564963 0.939259 3.923609 0.936051 4.456312 16.336263 4.456826 -1.803438 17.066744 0.860212 -3.653580 -4.136156 2.183442 1.054386 -1.029309 -6.584624 7.673771 -3.203490 -6.911637 81.529958 -79.155920 -89.384064 0.983331 5.051525 -2.544394 -9.784363 0.728859 -1.530827 9.942033 -6.608398 3.749387 -149.389377 -76.623619 149.128937 -5.828635 14.983068 -58.591252 5.985336 -48.575360 6.790686 -17.791720 85.548556 -7.478765 -3.835637 -4.987838 -1.360094 0.007104 0.223106 -0.008490 -12.676127 -50.944948 17.906333 -158.815924 88.242256 -165.119248 0.213800 -6.955447 2.169631 -0.015503 -0.243151 0.027798
-54.295651 50.128338 35.748916 171.784233 -33.617575 -4.876304 5.250080 18.908840 5.604316 0.561798 2.391441 0.561795 0.947883 3.927463 0.938998 4.460523 16.331292 4.461778 -1.833093 17.035061 0.844554 -3.727459 -4.281331 2.144098 1.085048 -1.094124 -6.658881 7.562894 -3.214118 -7.272577 82.584510 -79.972041 -90.267721 1.071958 5.608204 -0.989189 -9.805220 0.692295 -1.519907 9.957896 -6.812280 4.042790 -152.877915 -76.941681 152.181672 -5.554566 15.022388 -58.760914 5.939748 -48.596747 6.793580 -17.731114 85.560266 -7.434116 -3.831408 -4.992294 -1.365766 0.007362 0.220439 -0.007071 -12.668513 -50.971046 17.897081 -159.250562 88.253050 -165.559812 0.185272 -6.945327 2.187684 -0.017565 -0.242238 0.024556
-54.299430 50.129621 35.753786 171.823207 -33.572344 -4.890984 5.230852 18.879930 5.604322 0.561456 2.389277 0.562364 0.934072 3.917394 0.935656 4.473969 16.327580 4.468439 -1.893117 16.915535 0.794191 -3.775658 -4.332973 2.119817 1.090481 -1.124931 -6.695543 7.464578 -3.261981 -7.680344 83.866667 -80.785185 -91.384675 1.240904 6.184972 0.724507 -9.834777 0.622811 -1.495140 9.973033 -6.983558 4.318437 -156.622982 -77.224487 155.486910 -5.268469 15.069820 -58.910676 5.880851 -48.641263 6.787698 -17.648542 85.572697 -7.360675 -3.822844 -4.997235 -1.378538 0.007122 0.220294 -0.005766 -12.687717 -51.023191 17.916641 -159.513239 88.262797 -165.847367 0.151534 -6.927535 2.214848 -0.028420 -0.244322 0.034769
-54.301962 50.132912 35.754879 171.841270 -33.550643 -4.899772 5.234174 18.871571 5.609257 0.561298 2.386843 0.562861 0.933808 3.913435 0.936384 4.467379 16.316638 4.472263 -1.929337 16.854836 0.764783 -3.840634 -4.442606 2.079333 1.100170 -1.153912 -6.729014 7.354785 -3.321875 -8.090403 85.489887 -81.570952 -92.839527 1.509891 6.778482 2.594360 -9.867614 0.496349 -1.463757 9.997065 -7.099920 4.585115 -160.645547 -77.462773 159.059683 -4.982929 15.111737 -59.059261 5.797212 -48.658130 6.811510 -17.511306 85.583588 -7.244022 -3.811579 -5.002783 -1.402142 0.009265 0.218872 -0.004781 -12.639073 -51.056108 17.901953 -158.929615 88.261216 -165.257532 0.130189 -6.921688 2.250532 -0.022695 -0.241745 0.030591
-54.304878 50.136385 35.754804 171.860102 -33.530808 -4.906493 5.251007 18.870140 5.624826 0.544462 2.375755 0.557688 0.932835 3.908366 0.936755 4.454917 16.311399 4.470198 -1.945799 16.823974 0.749991 -3.918977 -4.583020 2.025859 1.139538 -1.208449 -6.786698 7.208997 -3.371719 -8.467070 87.587762 -82.301675 -94.758141 1.887179 7.381273 4.610031 -9.891212 0.407295 -1.446198 10.025476 -7.261062 4.845596 -164.971821 -77.640992 162.923292 -4.706779 15.146237 -59.228169 5.748896 -48.676446 6.812893 -17.586059 85.594749 -7.323264 -3.795872 -5.008180 -1.418912 0.009138 0.215589 -0.003329 -12.628621 -51.079588 17.904935 -158.542531 88.261470 -164.882950 0.114841 -6.916538 2.278464 -0.020644 -0.239961 0.025556
-54.307433 50.140513 35.753227 171.874990 -33.517327 -4.912285 5.254777 18.862219 5.631953 0.542758 2.375761 0.558663 0.945748 3.902098 0.940917 4.437140 16.304603 4.469785 -1.973609 16.797866 0.731456 -3.998985 -4.719149 1.966496 1.170578 -1.251911 -6.841011 7.047776 -3.438469 -8.845095 90.305287 -82.969839 -97.281421 2.387113 7.987123 6.756666 -9.922437 0.346966 -1.441364 10.060209 -7.452666 5.094765 -169.568932 -77.744280 167.047214 -4.436849 15.175518 -59.430829 5.710961 -48.689888 6.816152 -17.610569 85.606790 -7.354385 -3.786333 -5.011751 -1.425554 0.008657 0.211199 -0.004759 -12.616229 -51.095491 17.910473 -158.082796 88.259107 -164.438644 0.104289 -6.911130 2.304961 -0.020319 -0.240854 0.023424
-54.309310 50.145405 35.750196 171.879834 -33.511618 -4.915678 5.260240 18.858266 5.637965 0.547872 2.376100 0.559770 0.938974 3.898172 0.940123 4.446990 16.287971 4.478022 -2.039175 16.718166 0.676614 -4.052067 -4.783139 1.922861 1.189826 -1.275766 -6.895194 6.885339 -3.524055 -9.223034 93.805429 -83.585582 -100.576616 3.027090 8.581657 9.020968 -9.949704 0.331734 -1.444919 10.093184 -7.684702 5.324048 -174.336207 -77.765558 171.331661 -4.162199 15.195810 -59.676531 5.668407 -48.693487 6.829287 -17.579392 85.618391 -7.332320 -3.777793 -5.018526 -1.435350 0.007186 0.209744 -0.006535 -12.598780 -51.102319 17.913280 -157.681331 88.254807 -164.045308 0.097450 -6.908783 2.320446 -0.014396 -0.239806 0.014999
-54.313177 50.149437 35.747460 171.910251 -33.496023 -4.922242 5.241138 18.846852 5.632909 0.557254 2.375249 0.563215 0.927539 3.895322 0.937152 4.440262 16.286867 4.477412 -2.080036 16.643614 0.632461 -4.114768 -4.858778 1.874377 1.251868 -1.317270 -6.975616 6.695932 -3.611314 -9.572677 98.195612 -84.140304 -104.764937 3.787277 9.130892 11.384638 -9.976334 0.267362 -1.432965 10.147268 -7.883098 5.531291 -179.159812 -77.698737 175.659981 -3.871564 15.208199 -59.961325 5.607382 -48.702010 6.826661 -17.698411 85.631079 -7.460468 -3.760978 -5.030852 -1.446430 0.011433 0.209192 -0.011145 -12.595915 -51.119820 17.914435 -157.248100 88.253376 -163.635608 0.084299 -6.901352 2.340627 -0.018617 -0.242682 0.027110
